<svg width="354" height="375" fill="none" xmlns="http://www.w3.org/2000/svg"><g clip-path="url(#clip0_1407_20703)"><circle cx="141.785" cy="174.024" fill="#F2F3F5" r="76.705"/><path fill-rule="evenodd" clip-rule="evenodd" d="M10.522 174.447a4.886 4.886 0 014.887-4.885 4.886 4.886 0 014.888 4.885 4.886 4.886 0 01-4.888 4.885 4.886 4.886 0 01-4.887-4.885zm4.887-2.171a2.172 2.172 0 00-2.174 2.171c0 1.198.973 2.171 2.174 2.171a2.172 2.172 0 002.174-2.171 2.172 2.172 0 00-2.174-2.171z" fill="#000638"/><path fill-rule="evenodd" clip-rule="evenodd" d="M34.032 176.614c-3.675-.776-8.102-.814-11.565-.458a1.356 1.356 0 11-.278-2.699c3.659-.377 8.38-.348 12.403.502 2.01.425 3.923 1.07 5.453 2.03 1.54.967 2.782 2.314 3.22 4.139.382 1.593.32 3.015-.102 4.255-.42 1.236-1.17 2.209-2.035 2.953-1.688 1.452-3.889 2.105-5.405 2.289-5.196.823-11.326 1.058-16.224-.07-2.454-.565-4.712-1.497-6.377-2.973-1.71-1.516-2.736-3.559-2.736-6.137a1.357 1.357 0 112.714 0c0 1.769.669 3.083 1.822 4.106 1.198 1.062 2.97 1.85 5.186 2.36 4.432 1.02 10.187.828 15.215.03l.026-.004.027-.004c1.17-.138 2.817-.652 3.982-1.654.566-.487.998-1.07 1.236-1.769.236-.695.31-1.589.032-2.749-.223-.927-.874-1.752-2.023-2.473-1.16-.727-2.732-1.285-4.572-1.674z" fill="#000638"/><path fill-rule="evenodd" clip-rule="evenodd" d="M17.583 182.317a2.171 2.171 0 114.343 0 2.171 2.171 0 01-4.343 0zm2.172.543a.542.542 0 100-1.085.542.542 0 000 1.085zm6.925 0c.08 0 .407-.104.407-.543 0-.439-.327-.542-.406-.542-.08 0-.407.103-.407.542 0 .439.327.543.407.543zm-2.307-.543c0-1.23 1.064-2.171 2.308-2.171 1.243 0 2.307.942 2.307 2.171 0 1.23-1.064 2.171-2.307 2.171-1.244 0-2.308-.941-2.308-2.171zm7.061 0a2.172 2.172 0 114.344.001 2.172 2.172 0 01-4.344-.001zm2.172.543a.543.543 0 100-1.085.543.543 0 000 1.085zM278.722 75.392a4.615 4.615 0 014.616-4.614 4.615 4.615 0 110 9.227 4.615 4.615 0 01-4.616-4.613zm4.616-1.9a1.9 1.9 0 100 3.8 1.9 1.9 0 100-3.8z" fill="#000638"/><path fill-rule="evenodd" clip-rule="evenodd" d="M288.385 72.542c0-.75.608-1.357 1.357-1.357h12.423c1.293 0 2.797.11 3.866 1.195 1.047 1.06 1.342 2.71 1.342 4.76 0 1.344-.004 2.817-.007 4.255-.007 2.767-.014 5.403.007 6.739v.001c.014.933-.208 2.022-.925 2.938-.742.947-1.886 1.546-3.384 1.69-2.487.24-12.163.1-16.612.006-1.047-.003-2.506-.293-3.742-1.228-1.306-.989-2.223-2.597-2.223-4.918v-4.31a1.357 1.357 0 012.714 0v4.31c0 1.523.56 2.31 1.147 2.754.653.494 1.496.678 2.119.678h.029c4.546.097 14.022.227 16.308.006.891-.085 1.3-.397 1.507-.661.232-.296.356-.72.349-1.223" fill="#000638"/><path fill-rule="evenodd" clip-rule="evenodd" d="M286.969 78.563a1.358 1.358 0 011.886-.357l5.975 4.07a1.357 1.357 0 01-1.528 2.243l-5.975-4.07a1.358 1.358 0 01-.358-1.886z" fill="#000638"/><path fill-rule="evenodd" clip-rule="evenodd" d="M305.926 72.436c.509.55.475 1.408-.075 1.917l-10.864 10.041a1.358 1.358 0 01-1.842-1.993l10.864-10.04a1.356 1.356 0 011.917.075z" fill="#000638"/><path fill-rule="evenodd" clip-rule="evenodd" d="M295.863 79.993a1.357 1.357 0 011.919.006l2.969 2.985 2.968 2.985a1.357 1.357 0 11-1.924 1.914l-2.969-2.986-2.968-2.985a1.357 1.357 0 01.005-1.919zm-4.761-.132c.604.444.734 1.293.291 1.897l-4.381 5.97a1.357 1.357 0 01-2.188-1.605l4.381-5.97a1.357 1.357 0 011.897-.292zM74.31 231.853c1.749 2.122 2.87 5.009 3.386 6.997a1.357 1.357 0 11-2.627.681 18.826 18.826 0 00-1.156-3.182c.015.485-.037 1-.166 1.542l-1.32-.314 1.32.314c-.26 1.098-.725 1.984-1.413 2.612a3.728 3.728 0 01-2.309.966c-1.493.1-2.935-.584-3.778-1.154l-.059-.04-.055-.046c-1.164-.981-2.71-2.718-3.184-4.703-.25-1.041-.212-2.2.39-3.305.591-1.088 1.641-1.963 3.106-2.63l.563 1.235-.563-1.235c1.599-.728 3.137-.76 4.53-.253 1.348.491 2.454 1.446 3.335 2.515zm-4.264.035c-.696-.253-1.497-.273-2.476.173-1.113.507-1.62 1.039-1.848 1.457-.218.4-.26.846-.134 1.377.272 1.136 1.27 2.381 2.238 3.21.035.023.07.046.107.068-.803-.759-1.192-1.653-1.214-2.571-.024-1 .393-1.839.808-2.355.53-.776 1.354-1.138 2.156-1.189.287-.018.576.002.86.057a3.472 3.472 0 00-.497-.227zm.022 6.841a1.358 1.358 0 00.05-2.272c-.637-.437-.683-.779-.686-.919a.986.986 0 01.22-.604l.061-.072.05-.078a.295.295 0 01.09-.018c.137-.008.37.036.622.205.441.297.94.996.632 2.291-.171.722-.42 1.07-.604 1.238a.956.956 0 01-.435.229zm113.187-62.134c.75 0 1.357.608 1.357 1.357v23.068a1.357 1.357 0 11-2.714 0v-23.068c0-.749.608-1.357 1.357-1.357zm17.382 2.714c.75 0 1.357.607 1.357 1.357v21.982a1.357 1.357 0 11-2.714 0v-21.982c0-.75.608-1.357 1.357-1.357z" fill="#000638"/><path d="M238.199 240.143c-10.71.344-58.011 23.226-80.323 34.624-1.9 12.56 6.118 21.578 10.364 24.517 22.24-6.452 67.886-19.527 72.55-20.216 4.664-.688 9.284-4.014 11.012-5.591 12.092-14.108 3.167-26.094-2.807-30.323-4.253-3.011-7.924-3.104-10.796-3.011z" fill="#000638"/><path d="M137.88 236.942c7.588.506 40.69 13.325 56.375 20.044l-35.87 17.91c-16.053 4.704-25.914 3.154-28.926 2.14-17.384-8.369-10.573-29.015-3.666-36.663 4.452-3.786 9.368-3.612 12.087-3.431z" fill="#000638"/><path fill-rule="evenodd" clip-rule="evenodd" d="M221.111 282.413a1.356 1.356 0 011.81-.635c5.001 2.401 7.781 5.589 9.218 8.294l.025.046.02.047c1.562 3.571 1.045 6.777-1.088 8.794-2.062 1.95-5.293 2.453-8.491 1.445h-.001c-1.628-.514-2.71-.966-3.623-1.503-.839-.493-1.497-1.039-2.238-1.654l-.168-.14h-.001c-.895-.742-4.898-4.461-9.408-8.793a1.356 1.356 0 111.88-1.957c4.537 4.357 8.457 7.995 9.26 8.66l.119.099c.789.654 1.287 1.067 1.932 1.446.667.392 1.535.772 3.064 1.254 2.513.792 4.639.279 5.81-.828 1.094-1.035 1.685-2.914.487-5.688-1.171-2.182-3.518-4.938-7.971-7.076a1.356 1.356 0 01-.636-1.811zm-59.065 9.418c.574.483.647 1.339.164 1.912-3.572 4.244-7.353 6.14-10.331 6.857l-.051.013-.051.008c-3.847.621-6.823-.68-8.244-3.248-1.374-2.483-1.055-5.738.719-8.583v-.001c.904-1.448 1.612-2.383 2.359-3.133.687-.69 1.38-1.191 2.16-1.755l.178-.128v-.001c.942-.682 5.542-3.63 10.862-6.917a1.358 1.358 0 011.426 2.309c-5.351 3.306-9.852 6.195-10.696 6.806l-.125.091c-.831.602-1.355.981-1.883 1.511-.546.548-1.13 1.294-1.978 2.653-1.394 2.237-1.428 4.423-.648 5.834.729 1.317 2.401 2.358 5.387 1.891 2.404-.59 5.659-2.176 8.84-5.955a1.358 1.358 0 011.912-.164z" fill="#000638"/><path d="M131.265 174.263l3.641 66.121a2.715 2.715 0 002.712 2.565h101.586c1.5 0 2.716-1.215 2.716-2.714v-67.538a2.716 2.716 0 00-2.753-2.714l-105.227 1.418a2.714 2.714 0 00-2.675 2.862zm108.075 69.635H136.948a2.58 2.58 0 100 5.157H239.34a2.58 2.58 0 100-5.157z" fill="#000638"/><path fill-rule="evenodd" clip-rule="evenodd" d="M238.201 171.498c-8.051-22.025-28.281-28.955-37.273-28.826a1.357 1.357 0 01-.039-2.714c9.93-.142 31.345 7.311 39.861 30.608a1.357 1.357 0 01-2.549.932zm-56.737-30.578a1.357 1.357 0 01-1.073 1.591c-10.652 2.076-18.405 5.366-24.482 10.243-6.077 4.878-10.583 11.427-14.604 20.2a1.357 1.357 0 01-2.467-1.131c4.127-9.003 8.855-15.955 15.373-21.186 6.518-5.232 14.722-8.658 25.661-10.789a1.357 1.357 0 011.592 1.072zm76.907 11.739c.642.385.85 1.219.465 1.861l-5.297 8.82a1.356 1.356 0 11-2.326-1.397l5.296-8.82a1.357 1.357 0 011.862-.464zm7.543 5.589a1.356 1.356 0 01-.178 1.91l-7.197 5.971a1.358 1.358 0 01-1.733-2.089l7.197-5.97a1.357 1.357 0 011.911.178zm-.291 8.557c.623.416.791 1.259.375 1.882-1.065 1.597-2.699 2.161-4.125 2.269-1.404.107-2.755-.207-3.604-.535a1.357 1.357 0 01.979-2.531c.555.214 1.499.43 2.419.36.899-.068 1.618-.386 2.074-1.069a1.356 1.356 0 011.882-.376zm-154.877-15.202a1.357 1.357 0 011.919.031l8.147 8.413a1.356 1.356 0 11-1.949 1.888l-8.148-8.413a1.357 1.357 0 01.031-1.919zm11.996-5.854a1.357 1.357 0 011.756.775l4.889 12.619a1.357 1.357 0 11-2.531.981l-4.889-12.62a1.358 1.358 0 01.775-1.755zm-12.322 17.205a1.358 1.358 0 011.749-.791l6.111 2.307a1.357 1.357 0 01-.958 2.539l-6.111-2.307a1.357 1.357 0 01-.791-1.748zm133.757 22.155a1.357 1.357 0 011.874.413c2.505 3.923 5.353 8.464 6.109 14.327.762 5.908-.614 12.961-6.094 21.959a1.356 1.356 0 11-2.318-1.412c5.249-8.619 6.384-15.056 5.721-20.2-.67-5.191-3.185-9.266-5.705-13.213a1.356 1.356 0 01.413-1.874z" fill="#000638"/><path d="M201.045 141.994c1.222-3.528.108-5.902-.978-6.355-6.518 5.971-16.404 3.754-20.071.136-1.304 1.194-.543 4.726 0 5.812 7.062 7.815 17.111 3.437 21.049.407z" fill="#000638"/><path fill-rule="evenodd" clip-rule="evenodd" d="M205.459 149.105c.569.488.634 1.345.146 1.914l-5.97 6.959a9.507 9.507 0 01-10.77 2.628l-5.198-2.094a6.794 6.794 0 00-8.23 2.589l-2.181 3.344a1.356 1.356 0 11-2.273-1.482l2.181-3.345a9.508 9.508 0 0111.517-3.624c.001 0 0 0 0 0l5.198 2.094a6.793 6.793 0 007.696-1.877l5.97-6.959a1.357 1.357 0 011.914-.147zm-75.313 40.896a1.357 1.357 0 01.718 1.779c-.955 2.248-2.025 6.176-2.055 10.504-.029 4.321.978 8.918 4.031 12.67a1.356 1.356 0 11-2.104 1.713c-3.574-4.391-4.672-9.676-4.64-14.401.032-4.719 1.188-9 2.27-11.547a1.358 1.358 0 011.78-.718z" fill="#000638"/><path d="M219.769 86.524c-2.987 10.72-4.481 11.67-8.827 16.419 0-4.694-.807-12.572-.807-15.852-14.228 0-26.236-5.804-30.462-8.706.152 9.841-9.082 16.276-9.082 16.276s1.324 3.974 2.081 12.87c.606 7.115-1.135 5.74-2.081 4.163-2.724-8.781-7.19-6.435-9.082-4.163-23.218-37.697 12.488-44.98 19.299-44.287 5.147-4.39 12.324-7.831 17.369-8.336 18.197-1.82 26.436 14.235 21.592 31.616z" fill="#000638"/><path fill-rule="evenodd" clip-rule="evenodd" d="M209.64 86.104a1.358 1.358 0 011.512 1.182c.633 5.166 1.559 13.396.816 21.876-.741 8.461-3.16 17.38-9.399 23.746l-.928-.909.928.909c-6.366 6.494-14.081 6.888-20.459 3.6-6.29-3.242-11.252-10.029-12.54-17.885a1.357 1.357 0 012.678-.439c1.157 7.056 5.62 13.085 11.105 15.912 5.396 2.782 11.803 2.497 17.277-3.088 5.6-5.713 7.917-13.888 8.635-22.082.716-8.174-.175-16.158-.807-21.31a1.357 1.357 0 011.182-1.512z" fill="#000638"/><path fill-rule="evenodd" clip-rule="evenodd" d="M161.753 105.35a1.357 1.357 0 01.744 1.769c-.593 1.455-.638 3.969.543 6.093 1.118 2.009 3.424 3.82 7.869 3.82a1.356 1.356 0 110 2.714c-5.316 0-8.591-2.249-10.241-5.215-1.586-2.851-1.585-6.228-.684-8.437a1.358 1.358 0 011.769-.744z" fill="#000638"/><path fill-rule="evenodd" clip-rule="evenodd" d="M165.906 107.311c.722.199 1.147.946.948 1.668-.045.161-.164 1.346 1.653 2.215a1.357 1.357 0 11-1.171 2.448c-3.022-1.446-3.486-3.976-3.099-5.383a1.357 1.357 0 011.669-.948zm47.989-6.283a1.357 1.357 0 011.497 1.201c.448 4.081.103 7.494-.836 10.115-.936 2.613-2.506 4.543-4.558 5.398a1.358 1.358 0 01-1.044-2.505c1.134-.473 2.279-1.664 3.047-3.808.765-2.135 1.11-5.114.694-8.904a1.356 1.356 0 011.2-1.497zm-16.004 20.158a1.357 1.357 0 01-.178 1.911 7.455 7.455 0 00-1.178 1.256c-.082.107-.173.23-.27.361-.241.326-.517.7-.778.988-.42.464-.971.922-1.764 1.141-.769.212-1.602.153-2.515-.085a1.356 1.356 0 01.685-2.626c.649.169.963.135 1.109.095.123-.034.256-.106.473-.346a7.64 7.64 0 00.499-.636c.113-.153.244-.33.408-.545a10.2 10.2 0 011.598-1.692 1.358 1.358 0 011.911.178z" fill="#000638"/><path d="M200.874 108.524a2.036 2.036 0 10-2.037-2.035c0 1.124.912 2.035 2.037 2.035zm-17.925.271a2.036 2.036 0 10-2.037-2.035c0 1.124.912 2.035 2.037 2.035z" fill="#000638"/><path fill-rule="evenodd" clip-rule="evenodd" d="M184.507 100.601c-3.21-.612-4.465 1.226-4.708 1.942a1.358 1.358 0 01-2.57-.874c.614-1.806 3.058-4.635 7.786-3.734a1.357 1.357 0 01-.508 2.666zm18.472.163c-2.066-1.49-3.938-.617-4.565-.075a1.357 1.357 0 11-1.776-2.051c1.266-1.096 4.542-2.518 7.928-.075a1.357 1.357 0 01-1.587 2.201zm-11.865 3.251a1.357 1.357 0 011.188 1.507c-.152 1.292-.277 3.231-.169 4.849.055.821.164 1.468.313 1.888.04.114.075.189.1.237a1.358 1.358 0 01-.692 2.615c-1.192-.214-1.728-1.271-1.967-1.947-.271-.767-.401-1.702-.462-2.612-.123-1.843.019-3.961.182-5.349a1.357 1.357 0 011.507-1.188zm1.477 8.551a.079.079 0 01-.013-.016c.01.009.014.015.013.016zm101.993 73.287a1.357 1.357 0 011.782-.712c22.302 9.57 36.203 20.434 45.638 29.725l.039.038.036.042c3.743 4.332 6.088 8.049 7.145 11.231 1.071 3.222.851 6.016-.722 8.247-1.523 2.16-4.136 3.533-7.278 4.386-3.168.86-7.062 1.244-11.402 1.278-17.321.137-42.821-5.302-60.969-10.328a1.357 1.357 0 11.724-2.615c18.11 5.015 43.303 10.363 60.224 10.229 4.221-.033 7.858-.408 10.712-1.183 2.878-.782 4.776-1.919 5.77-3.33.944-1.339 1.247-3.176.366-5.829-.893-2.685-2.966-6.073-6.588-10.271-9.212-9.064-22.827-19.712-44.765-29.126a1.358 1.358 0 01-.712-1.782zm-41.825-60.333c11.815-7.166 44.151-20.447 79.612-16.608 8.81.954 13.944 3.601 15.403 8.002.718 2.167.444 4.522-.432 6.883-.875 2.361-2.389 4.833-4.313 7.325-7.661 9.926-22.544 21.089-33.837 28.317a1.357 1.357 0 11-1.463-2.285c11.25-7.201 25.794-18.156 33.152-27.69 1.831-2.373 3.171-4.6 3.917-6.611.745-2.01.859-3.698.4-5.085-.898-2.708-4.384-5.212-13.119-6.157-34.719-3.76-66.461 9.284-77.913 16.229a1.356 1.356 0 11-1.407-2.32z" fill="#000638"/><path fill-rule="evenodd" clip-rule="evenodd" d="M189.277 44.774c16.736-17.169 33.667-23.106 48.675-16.965 6.419 2.626 9.293 9.214 10.017 17.45.728 8.277-.659 18.652-3.2 29.626-5.087 21.975-14.905 46.771-22.396 62.898a1.356 1.356 0 11-2.461-1.143c7.447-16.033 17.184-40.642 22.214-62.367 2.517-10.875 3.83-20.923 3.14-28.775-.694-7.892-3.353-13.136-8.341-15.177-13.51-5.529-29.306-.475-45.705 16.347-16.382 16.806-33.071 45.106-48.113 85.185a1.357 1.357 0 11-2.54-.953c15.105-40.25 31.958-68.941 48.71-86.126zM44.9 82.365c22.088 5.13 47.612 16.788 64.366 25.953a1.358 1.358 0 01-1.302 2.381c-16.652-9.109-41.93-20.64-63.678-25.691-10.896-2.53-20.735-3.393-28.12-1.64-3.672.872-6.677 2.376-8.918 4.587-2.231 2.2-3.786 5.18-4.438 9.154-1.301 7.926 1.667 15.635 7.628 22.998 5.969 7.371 14.843 14.269 25.052 20.476 20.41 12.409 45.845 21.873 63.041 26.782a1.358 1.358 0 01-.745 2.61c-17.341-4.951-43.021-14.497-63.706-27.073-10.338-6.286-19.506-13.375-25.75-21.087-6.252-7.72-9.668-16.192-8.198-25.146.733-4.467 2.521-7.993 5.21-10.646 2.68-2.643 6.173-4.34 10.196-5.295 8.004-1.9 18.34-.923 29.362 1.637zm63.336 103.407c.34.668.074 1.485-.593 1.825-24.394 12.425-51.724 27.158-68.73 40.98-8.553 6.951-14.23 13.467-15.836 19.151-.783 2.77-.588 5.304.692 7.651 1.3 2.386 3.8 4.718 7.892 6.883l-.635 1.199.635-1.199c3.232 1.71 7.838 2.781 13.29 3.28 5.426.498 11.583.421 17.843-.092 12.54-1.027 25.329-3.788 33.31-7.045a1.357 1.357 0 011.025 2.513c-8.315 3.393-21.396 6.195-34.114 7.237-6.37.522-12.69.606-18.313.09-5.599-.514-10.617-1.631-14.31-3.584-4.368-2.311-7.361-4.967-9.006-7.982-1.665-3.055-1.868-6.334-.92-9.689 1.854-6.565 8.15-13.542 16.734-20.519 17.265-14.032 44.853-28.885 69.211-41.292a1.357 1.357 0 011.825.593z" fill="#000638"/><path d="M186.786 357.089c37.124 0 67.22-3.645 67.22-8.142 0-4.496-30.096-8.141-67.22-8.141-37.125 0-67.22 3.645-67.22 8.141 0 4.497 30.095 8.142 67.22 8.142z" fill="#000638"/></g><ellipse cx="310.5" cy="33.065" rx="32.5" ry="32.438" fill="#18a47d"/><ellipse cx="14.5" cy="126.886" rx="14.5" ry="14.473" fill="#18a47d"/><ellipse cx="347.5" cy="229.691" rx="6.5" ry="6.488" fill="#18a47d"/><defs><clipPath id="clip0_1407_20703"><path fill="#fff" transform="translate(0 26)" d="M0 0h349v349H0z"/></clipPath></defs></svg>
